<?xml version="1.0" encoding="UTF-8"?>
<svg width="283pt" version="1.1" xmlns="http://www.w3.org/2000/svg" height="246pt" viewBox="0 0 283 246" xmlns:xlink="http://www.w3.org/1999/xlink">
 <defs>
  <clipPath id="Clip0">
   <path d="M0 0 L283 0 L283 246 L0 246 L0 0 Z" transform="translate(0, 0)"/>
  </clipPath>
 </defs>
 <g id="Hintergrund">
  <g id="Gruppe1" clip-path="url(#Clip0)">
   <path style="fill:#000000; fill-rule:evenodd;stroke:none;" d="M11.2265 9.527 L11.2265 17.492 L13.4609 17.492 L13.4609 0 L11.2265 0 L11.2265 7.558 L2.23047 7.558 L2.23047 0 L0 0 L0 17.492 L2.23047 17.492 L2.23047 9.527 L11.2265 9.527 Z" transform="translate(4.33008, 160.808)"/>
   <path style="fill:#000000; fill-rule:evenodd;stroke:none;" d="M3.4062 6.925 L3.6054 6.925 L4.2734 6.906 C6.0234 6.906 6.9218 7.699 6.9218 9.234 C6.9218 10.836 5.9336 11.793 4.2734 11.793 C2.5429 11.793 1.6953 10.925 1.5859 9.07 L0 9.07 C0.0703 10.097 0.25 10.765 0.5586 11.343 C1.207 12.57 2.4687 13.199 4.2187 13.199 C6.8515 13.199 8.5468 11.632 8.5468 9.214 C8.5468 7.589 7.914 6.691 6.3828 6.168 C7.5742 5.679 8.1679 4.797 8.1679 3.515 C8.1679 1.316 6.707 0 4.2734 0 C1.6953 0 0.3242 1.406 0.2695 4.129 L1.8554 4.129 C1.875 3.355 1.9453 2.922 2.1445 2.523 C2.5039 1.82 3.3007 1.386 4.289 1.386 C5.6992 1.386 6.5468 2.199 6.5468 3.57 C6.5468 4.472 6.2187 5.011 5.5156 5.3 C5.0859 5.48 4.5234 5.554 3.4062 5.57 L3.4062 6.925 Z" transform="translate(20.2432, 170.015)"/>
   <path style="fill:#000000; fill-rule:evenodd;stroke:none;" d="M14.7305 5.71 C14.0352 1.875 11.8281 0 7.9883 0 C5.6367 0 3.7422 0.746 2.4453 2.183 C0.8633 3.914 0 6.41 0 9.238 C0 12.117 0.8867 14.589 2.5195 16.293 C3.8867 17.683 5.6133 18.332 7.8945 18.332 C12.1641 18.332 14.5625 16.031 15.0898 11.398 L12.7891 11.398 C12.5977 12.597 12.3555 13.414 11.9961 14.109 C11.2773 15.55 9.7891 16.367 7.918 16.367 C4.4375 16.367 2.2305 13.582 2.2305 9.214 C2.2305 4.73 4.3164 1.968 7.7266 1.968 C9.1406 1.968 10.4609 2.378 11.1797 3.074 C11.8281 3.671 12.1875 4.394 12.4531 5.71 L14.7305 5.71 Z" transform="translate(30.8252, 160.519)"/>
   <path style="fill:#000000; fill-rule:nonzero;stroke:none;" d="M24.5 13.65 L24.5 15.6 L0 1.45 L0.8496 0 L24.5 13.65 Z" transform="translate(47.2002, 174.75)"/>
   <path style="fill:#000000; fill-rule:nonzero;stroke:none;" d="M34.3498 0 L34.3498 1.95 L0 21.8 L0 19.85 L34.3498 0 Z" transform="translate(71.7002, 168.55)"/>
   <path style="fill:#000000; fill-rule:nonzero;stroke:none;" d="M34.4 19.85 L34.4 20.85 L33.55 21.3 L0 1.95 L0 0 L34.4 19.85 Z" transform="translate(106.05, 168.55)"/>
   <path style="fill:#000000; fill-rule:nonzero;stroke:none;" d="M33.5 0 L34.35 0.5 L34.35 1.45 L0.85 20.8 L0 20.35 L0 19.35 L33.5 0 Z" transform="translate(140.45, 169.05)"/>
   <path style="fill:#000000; fill-rule:nonzero;stroke:none;" d="M34.35 19.35 L34.35 20.35 L33.5 20.8 L0 1.45 L0 0.5 L0.85 0 L34.35 19.35 Z" transform="translate(174.8, 169.05)"/>
   <path style="fill:#000000; fill-rule:evenodd;stroke:none;" d="M14.73 5.71 C14.035 1.875 11.828 0 7.988 0 C5.636 0 3.742 0.746 2.445 2.183 C0.863 3.914 0 6.41 0 9.238 C0 12.117 0.886 14.589 2.519 16.293 C3.886 17.683 5.613 18.332 7.894 18.332 C12.164 18.332 14.562 16.031 15.089 11.398 L12.789 11.398 C12.597 12.597 12.355 13.414 11.996 14.109 C11.277 15.55 9.789 16.367 7.918 16.367 C4.437 16.367 2.23 13.582 2.23 9.214 C2.23 4.73 4.316 1.968 7.726 1.968 C9.14 1.968 10.46 2.378 11.179 3.074 C11.828 3.671 12.187 4.394 12.453 5.71 L14.73 5.71 Z" transform="translate(237.103, 160.519)"/>
   <path style="fill:#000000; fill-rule:evenodd;stroke:none;" d="M11.226 9.527 L11.226 17.492 L13.46 17.492 L13.46 0 L11.226 0 L11.226 7.558 L2.23 7.558 L2.23 0 L0 0 L0 17.492 L2.23 17.492 L2.23 9.527 L11.226 9.527 Z" transform="translate(255.27, 160.808)"/>
   <path style="fill:#000000; fill-rule:evenodd;stroke:none;" d="M3.406 6.925 L3.605 6.925 L4.273 6.906 C6.023 6.906 6.921 7.699 6.921 9.234 C6.921 10.836 5.933 11.793 4.273 11.793 C2.543 11.793 1.695 10.925 1.586 9.07 L0 9.07 C0.07 10.097 0.25 10.765 0.558 11.343 C1.207 12.57 2.468 13.199 4.218 13.199 C6.851 13.199 8.546 11.632 8.546 9.214 C8.546 7.589 7.914 6.691 6.382 6.168 C7.574 5.679 8.168 4.797 8.168 3.515 C8.168 1.316 6.707 0 4.273 0 C1.695 0 0.324 1.406 0.269 4.129 L1.855 4.129 C1.875 3.355 1.945 2.922 2.144 2.523 C2.504 1.82 3.3 1.386 4.289 1.386 C5.699 1.386 6.546 2.199 6.546 3.57 C6.546 4.472 6.218 5.011 5.515 5.3 C5.086 5.48 4.523 5.554 3.406 5.57 L3.406 6.925 Z" transform="translate(271.183, 170.015)"/>
   <path style="fill:#000000; fill-rule:nonzero;stroke:none;" d="M25.8 0 L26.65 1.5 L0.85 16.35 L0 15.9 L0 14.9 L25.8 0 Z" transform="translate(209.15, 173.5)"/>
   <path style="fill:#000000; fill-rule:nonzero;stroke:none;" d="M0 0.5 L0.85 0 L1.7 0.5 L1.7 39.2 L0.85 39.7 L0 39.2 L0 0.5 Z" transform="translate(173.95, 129.85)"/>
   <path style="fill:#000000; fill-rule:nonzero;stroke:none;" d="M33.5 0 L35.2 1 L0.85 20.85 L0 20.35 L0 19.35 L33.5 0 Z" transform="translate(174.8, 109.5)"/>
   <path style="fill:#000000; fill-rule:nonzero;stroke:none;" d="M28.4 0 L29.25 1.45 L0.85 17.85 L0 16.4 L28.4 0 Z" transform="translate(174.4, 105.85)"/>
   <path style="fill:#000000; fill-rule:nonzero;stroke:none;" d="M0 1 L1.7 0 L1.7 40.7002 L0 39.7002 L0 1 Z" transform="translate(208.3, 69.7998)"/>
   <path style="fill:#000000; fill-rule:nonzero;stroke:none;" d="M0 1.5 L0 0.5 L0.85 0 L35.2 19.8496 L33.5 20.8496 L0 1.5 Z" transform="translate(174.8, 49.9502)"/>
   <path style="fill:#000000; fill-rule:nonzero;stroke:none;" d="M0 1.5 L0.85 0 L29.25 16.4004 L28.4 17.9004 L0 1.5 Z" transform="translate(174.4, 56.5996)"/>
   <path style="fill:#000000; fill-rule:nonzero;stroke:none;" d="M1.7 20.8496 L0 19.8496 L34.35 0 L35.2 0.5 L35.2 1.5 L1.7 20.8496 Z" transform="translate(139.6, 49.9502)"/>
   <path style="fill:#000000; fill-rule:nonzero;stroke:none;" d="M1.7 39.7002 L0 40.7002 L0 0 L1.7 1 L1.7 39.7002 Z" transform="translate(139.6, 69.7998)"/>
   <path style="fill:#000000; fill-rule:nonzero;stroke:none;" d="M1.7 32.8 L0 32.8 L0 0 L1.7 0 L1.7 32.8 Z" transform="translate(145.55, 73.75)"/>
   <path style="fill:#000000; fill-rule:nonzero;stroke:none;" d="M35.2 19.35 L35.2 20.35 L34.35 20.85 L0 1 L1.7 0 L35.2 19.35 Z" transform="translate(139.6, 109.5)"/>
   <path style="fill:#000000; fill-rule:evenodd;stroke:none;" d="M14.731 5.71 C14.035 1.875 11.828 0 7.988 0 C5.637 0 3.742 0.746 2.445 2.183 C0.863 3.914 0 6.41 0 9.238 C0 12.117 0.887 14.589 2.52 16.293 C3.887 17.683 5.613 18.332 7.895 18.332 C12.164 18.332 14.563 16.031 15.09 11.398 L12.789 11.398 C12.598 12.597 12.356 13.414 11.996 14.109 C11.277 15.55 9.789 16.367 7.918 16.367 C4.438 16.367 2.231 13.582 2.231 9.214 C2.231 4.73 4.317 1.968 7.727 1.968 C9.141 1.968 10.461 2.378 11.18 3.074 C11.828 3.671 12.188 4.394 12.453 5.71 L14.731 5.71 Z" transform="translate(202.702, 220.019)"/>
   <path style="fill:#000000; fill-rule:evenodd;stroke:none;" d="M11.227 9.527 L11.227 17.492 L13.461 17.492 L13.461 0 L11.227 0 L11.227 7.558 L2.231 7.558 L2.231 0 L0 0 L0 17.492 L2.231 17.492 L2.231 9.527 L11.227 9.527 Z" transform="translate(220.869, 220.308)"/>
   <path style="fill:#000000; fill-rule:evenodd;stroke:none;" d="M3.406 6.925 L3.606 6.925 L4.274 6.906 C6.024 6.906 6.922 7.699 6.922 9.234 C6.922 10.836 5.934 11.793 4.274 11.793 C2.543 11.793 1.696 10.925 1.586 9.07 L0 9.07 C0.071 10.097 0.25 10.765 0.559 11.343 C1.207 12.57 2.469 13.199 4.219 13.199 C6.852 13.199 8.547 11.632 8.547 9.214 C8.547 7.589 7.914 6.691 6.383 6.168 C7.574 5.679 8.168 4.797 8.168 3.515 C8.168 1.316 6.707 0 4.274 0 C1.696 0 0.324 1.406 0.27 4.129 L1.856 4.129 C1.875 3.355 1.946 2.922 2.145 2.523 C2.504 1.82 3.301 1.386 4.289 1.386 C5.699 1.386 6.547 2.199 6.547 3.57 C6.547 4.472 6.219 5.011 5.516 5.3 C5.086 5.48 4.524 5.554 3.406 5.57 L3.406 6.925 Z" transform="translate(236.782, 229.515)"/>
   <path style="fill:#000000; fill-rule:nonzero;stroke:none;" d="M1.7 28.7 L0 28.7 L0 0.45 L0.85 0 L1.7 0.45 L1.7 28.7 Z" transform="translate(208.3, 189.4)"/>
   <path style="fill:#000000; fill-rule:evenodd;stroke:none;" d="M14.73 5.71 C14.035 1.875 11.828 0 7.988 0 C5.637 0 3.742 0.746 2.445 2.183 C0.863 3.914 0 6.41 0 9.238 C0 12.117 0.887 14.589 2.519 16.293 C3.887 17.683 5.613 18.332 7.894 18.332 C12.164 18.332 14.562 16.031 15.09 11.398 L12.789 11.398 C12.598 12.597 12.355 13.414 11.996 14.109 C11.277 15.55 9.789 16.367 7.918 16.367 C4.437 16.367 2.23 13.582 2.23 9.214 C2.23 4.73 4.316 1.968 7.727 1.968 C9.141 1.968 10.461 2.378 11.18 3.074 C11.828 3.671 12.187 4.394 12.453 5.71 L14.73 5.71 Z" transform="translate(134.002, 220.019)"/>
   <path style="fill:#000000; fill-rule:evenodd;stroke:none;" d="M11.227 9.527 L11.227 17.492 L13.461 17.492 L13.461 0 L11.227 0 L11.227 7.558 L2.23 7.558 L2.23 0 L0 0 L0 17.492 L2.23 17.492 L2.23 9.527 L11.227 9.527 Z" transform="translate(152.169, 220.308)"/>
   <path style="fill:#000000; fill-rule:evenodd;stroke:none;" d="M3.406 6.925 L3.606 6.925 L4.273 6.906 C6.023 6.906 6.922 7.699 6.922 9.234 C6.922 10.836 5.934 11.793 4.273 11.793 C2.543 11.793 1.695 10.925 1.586 9.07 L0 9.07 C0.07 10.097 0.25 10.765 0.559 11.343 C1.207 12.57 2.469 13.199 4.219 13.199 C6.852 13.199 8.547 11.632 8.547 9.214 C8.547 7.589 7.914 6.691 6.383 6.168 C7.574 5.679 8.168 4.797 8.168 3.515 C8.168 1.316 6.707 0 4.273 0 C1.695 0 0.324 1.406 0.27 4.129 L1.856 4.129 C1.875 3.355 1.945 2.922 2.145 2.523 C2.504 1.82 3.301 1.386 4.289 1.386 C5.699 1.386 6.547 2.199 6.547 3.57 C6.547 4.472 6.219 5.011 5.516 5.3 C5.086 5.48 4.523 5.554 3.406 5.57 L3.406 6.925 Z" transform="translate(168.082, 229.515)"/>
   <path style="fill:#000000; fill-rule:nonzero;stroke:none;" d="M1.7 28.7 L0 28.7 L0 0.45 L0.85 0 L1.7 0.45 L1.7 28.7 Z" transform="translate(139.6, 189.4)"/>
   <path style="fill:#000000; fill-rule:evenodd;stroke:none;" d="M8.422 0 C3.41 0 0 3.69532 0 9.16795 C0 14.6601 3.383 18.332 8.449 18.332 C10.582 18.332 12.453 17.6836 13.871 16.4843 C15.765 14.8789 16.894 12.168 16.894 9.31255 C16.894 3.67188 13.558 0 8.422 0 Z M8.422 1.96875 C12.215 1.96875 14.66 4.82422 14.66 9.26175 C14.66 13.4882 12.14 16.3671 8.449 16.3671 C4.703 16.3671 2.234 13.4882 2.234 9.16795 C2.234 4.84766 4.703 1.96875 8.422 1.96875 Z" transform="translate(167.51, 1.76855)"/>
   <path style="fill:#000000; fill-rule:evenodd;stroke:none;" d="M11.226 9.52738 L11.226 17.4922 L13.461 17.4922 L13.461 0 L11.226 0 L11.226 7.55859 L2.23 7.55859 L2.23 0 L0 0 L0 17.4922 L2.23 17.4922 L2.23 9.52738 L11.226 9.52738 Z" transform="translate(187.264, 2.05762)"/>
   <path style="fill:#000000; fill-rule:nonzero;stroke:none;" d="M0 0 L1.7 0 L1.7 28.1504 L0.85 28.6504 L0 28.1504 L0 0 Z" transform="translate(173.95, 21.7998)"/>
  </g>
 </g>
</svg>
