<?xml version="1.0" encoding="UTF-8"?>
<!DOCTYPE svg PUBLIC "-//W3C//DTD SVG 1.1//EN" "http://www.w3.org/Graphics/SVG/1.1/DTD/svg11.dtd">
<!-- Creator: CorelDRAW -->
<svg xmlns="http://www.w3.org/2000/svg" xml:space="preserve" width="400px" height="240px" style="shape-rendering:geometricPrecision; text-rendering:geometricPrecision; image-rendering:optimizeQuality; fill-rule:evenodd; clip-rule:evenodd"
viewBox="0 0 600 347.886"
 xmlns:xlink="http://www.w3.org/1999/xlink">
 <defs>
  <style type="text/css">
   <![CDATA[
    .str0 {stroke:black;stroke-width:1.11758}
    .fil1 {fill:none}
    .fil2 {fill:black}
    .fil0 {fill:black;fill-rule:nonzero}
   ]]>
  </style>
   <clipPath id="id0">
    <rect x="-5.17429" y="-5.17429" width="610.349" height="358.234"/>
   </clipPath>
 </defs>
 <g id="レイヤ_x0020_1">
  <metadata id="CorelCorpID_0Corel-Layer"/>
  <g style="clip-path:url(#id0)">
   <path class="fil0" d="M252.685 51.2838c0,-11.054 2.96113,-19.7042 8.89954,-25.9521 5.93693,-6.24786 13.5957,-9.37912 22.991,-9.37912 6.13786,0 11.6891,1.4725 16.6184,4.40284 4.92936,2.945 8.69714,7.03838 11.2857,12.2933 2.58861,5.24028 3.87631,11.2095 3.87631,17.8592 0,6.75972 -1.3493,12.8052 -4.07724,18.1232 -2.72941,5.33268 -6.58959,9.36446 -11.5805,12.1071 -5.00709,2.74407 -10.3867,4.10951 -16.1696,4.10951 -6.27866,0 -11.8753,-1.50477 -16.8047,-4.54217 -4.94549,-3.0242 -8.68247,-7.16304 -11.2242,-12.4033 -2.54314,-5.22415 -3.81472,-10.7739 -3.81472,-16.6184zm9.0858 0.13933c0,8.02982 2.15449,14.3407 6.46346,18.9606 4.32657,4.61843 9.73698,6.92838 16.2474,6.92838 6.63505,0 12.0924,-2.32462 16.3706,-6.99144 4.27964,-4.66536 6.43412,-11.2857 6.43412,-19.8582 0,-5.41041 -0.929846,-10.1388 -2.75874,-14.1853 -1.83036,-4.04644 -4.51137,-7.17771 -8.03129,-9.40992 -3.53459,-2.21755 -7.48717,-3.33366 -11.8753,-3.33366 -6.24786,0 -11.6113,2.13982 -16.1066,6.43412 -4.4967,4.27817 -6.74358,11.4412 -6.74358,21.4554z"/>
   <path id="1" class="fil0" d="M521.352 206.313c0,-11.054 2.96113,-19.7042 8.89954,-25.9521 5.93693,-6.24786 13.5957,-9.37912 22.991,-9.37912 6.13786,0 11.6891,1.4725 16.6184,4.40284 4.92936,2.945 8.69714,7.03838 11.2857,12.2933 2.58861,5.24028 3.87631,11.2095 3.87631,17.8592 0,6.75972 -1.3493,12.8052 -4.07724,18.1232 -2.72941,5.33268 -6.58959,9.36446 -11.5805,12.1071 -5.00709,2.74407 -10.3867,4.10951 -16.1696,4.10951 -6.27866,0 -11.8753,-1.50477 -16.8047,-4.54217 -4.94549,-3.0242 -8.68247,-7.16304 -11.2242,-12.4033 -2.54314,-5.22415 -3.81472,-10.7739 -3.81472,-16.6184zm9.0858 0.13933c0,8.02982 2.15449,14.3407 6.46346,18.9606 4.32657,4.61843 9.73698,6.92838 16.2474,6.92838 6.63505,0 12.0924,-2.32462 16.3706,-6.99144 4.27964,-4.66536 6.43412,-11.2857 6.43412,-19.8582 0,-5.41041 -0.929846,-10.1388 -2.75874,-14.1853 -1.83036,-4.04644 -4.51137,-7.17771 -8.03129,-9.40992 -3.53459,-2.21755 -7.48717,-3.33366 -11.8753,-3.33366 -6.24786,0 -11.6113,2.13982 -16.1066,6.43412 -4.4967,4.27817 -6.74358,11.4412 -6.74358,21.4554z"/>
   <path id="12" class="fil0" d="M386.709 283.827c0,-11.054 2.96113,-19.7042 8.89954,-25.9521 5.93693,-6.24786 13.5957,-9.37912 22.991,-9.37912 6.13786,0 11.6891,1.4725 16.6184,4.40284 4.92936,2.945 8.69714,7.03838 11.2857,12.2933 2.58861,5.24028 3.87631,11.2095 3.87631,17.8592 0,6.75972 -1.3493,12.8052 -4.07724,18.1232 -2.72941,5.33268 -6.58959,9.36446 -11.5805,12.1071 -5.00709,2.74407 -10.3867,4.10951 -16.1696,4.10951 -6.27866,0 -11.8753,-1.50477 -16.8047,-4.54217 -4.94549,-3.0242 -8.68247,-7.16304 -11.2242,-12.4033 -2.54314,-5.22415 -3.81472,-10.7739 -3.81472,-16.6184zm9.0858 0.13933c0,8.02982 2.15449,14.3407 6.46346,18.9606 4.32657,4.61843 9.73698,6.92838 16.2474,6.92838 6.63505,0 12.0924,-2.32462 16.3706,-6.99144 4.27964,-4.66536 6.43412,-11.2857 6.43412,-19.8582 0,-5.41041 -0.929846,-10.1388 -2.75874,-14.1853 -1.83036,-4.04644 -4.51137,-7.17771 -8.03129,-9.40992 -3.53459,-2.21755 -7.48717,-3.33366 -11.8753,-3.33366 -6.24786,0 -11.6113,2.13982 -16.1066,6.43412 -4.4967,4.27817 -6.74358,11.4412 -6.74358,21.4554z"/>
   <line id="123" class="fil1 str0" x1="270.528" y1="100.459" x2="270.528" y2= "209.6" />
   <polygon id="1234" class="fil2" points="266.184,99.8382 274.871,99.8382 274.871,210.22 266.184,210.22 "/>
   <line id="12345" class="fil1 str0" x1="298.448" y1="100.459" x2="298.448" y2= "209.6" />
   <polygon id="123456" class="fil2" points="294.106,99.8382 302.792,99.8382 302.792,210.22 294.106,210.22 "/>
   <line id="1234567" class="fil1 str0" x1="459.772" y1="256.108" x2="508.79" y2= "228.202" />
   <polygon id="12345678" class="fil2" points="461.013,260.449 456.67,253.008 507.549,223.242 512.512,231.304 "/>
   <line id="123456789" class="fil1 str0" x1="285.419" y1="203.399" x2="377.249" y2= "255.488" />
   <polygon id="12345678910" class="fil2" points="284.178,207.12 284.178,197.198 380.971,253.008 376.008,260.449 "/>
   <polygon id="1234567891011" class="fil0" points="17.9897,316.259 17.9897,249.674 26.8101,249.674 26.8101,277.021 61.4124,277.021 61.4124,249.674 70.2342,249.674 70.2342,316.259 61.4124,316.259 61.4124,284.882 26.8101,284.882 26.8101,316.259 "/>
   <path id="123456789101112" class="fil0" d="M80.4771 322.976l6.09973 -0.811049c0.706918,3.46126 1.89929,5.95013 3.57712,7.47837 1.68956,1.52823 3.73845,2.29235 6.1584,2.29235 2.8702,0 5.30188,-0.995845 7.28037,-2.98753 1.96822,-1.99022 2.96407,-4.45563 2.96407,-7.39624 0,-2.80127 -0.91518,-5.11562 -2.74407,-6.93278 -1.84063,-1.81863 -4.16671,-2.73234 -6.99144,-2.73234 -1.15717,0 -2.59301,0.231728 -4.30604,0.683451l0.683451 -5.36055c0.404791,0.0469323 0.728917,0.0703984 0.984111,0.0703984 2.59301,0 4.93082,-0.683451 7.01344,-2.03715 2.08409,-1.35517 3.1254,-3.44952 3.1254,-6.27426 0,-2.23368 -0.76265,-4.09778 -2.27915,-5.55708 -1.5165,-1.46957 -3.47299,-2.21022 -5.86947,-2.21022 -2.37301,0 -4.3515,0.752383 -5.92667,2.23368 -1.58543,1.49303 -2.60474,3.73992 -3.055,6.72598l-6.1012 -1.08824c0.74065,-4.09778 2.44341,-7.27011 5.08189,-9.51552 2.65021,-2.24542 5.9384,-3.37912 9.87338,-3.37912 2.70887,0 5.20948,0.589587 7.4901,1.74676 2.28062,1.17037 4.02738,2.75581 5.24322,4.76949 1.20411,2.01369 1.81716,4.14471 1.81716,6.41359 0,2.14129 -0.577854,4.09778 -1.73649,5.868 -1.15717,1.75996 -2.85847,3.1606 -5.11562,4.20191 2.9406,0.671718 5.21975,2.08409 6.85211,4.22537 1.62063,2.12955 2.43168,4.80323 2.43168,8.00929 0,4.34124 -1.57516,8.02249 -4.74603,11.0438 -3.1606,3.02127 -7.16597,4.52603 -12.0044,4.52603 -4.36324,0 -7.98729,-1.2965 -10.8692,-3.90125 -2.88194,-2.59301 -4.52603,-5.96187 -4.93082,-10.1051z"/>
   <path id="12345678910111213" class="fil0" d="M171.328 292.912l8.82034 2.23222c-1.84503,7.22464 -5.17722,12.7436 -9.96871,16.5568 -4.80469,3.79858 -10.6654,5.69054 -17.6113,5.69054 -7.17771,0 -13.0061,-1.45783 -17.5013,-4.37204 -4.4967,-2.93033 -7.92276,-7.16304 -10.2635,-12.6967 -2.34075,-5.54974 -3.51846,-11.5028 -3.51846,-17.8592 0,-6.92985 1.31704,-12.9768 3.96871,-18.1393 2.65021,-5.16255 6.41799,-9.08433 11.3165,-11.7653 4.88389,-2.68247 10.262,-4.01564 16.1388,-4.01564 6.66585,0 12.2625,1.68956 16.8047,5.08482 4.54217,3.39526 7.70423,8.15449 9.48766,14.3085l-8.66634 2.04742c-1.55023,-4.85309 -3.78245,-8.37155 -6.72745,-10.5891 -2.93033,-2.21755 -6.62039,-3.31753 -11.0848,-3.31753 -5.11562,0 -9.37912,1.22464 -12.8213,3.67392 -3.44219,2.46541 -5.86067,5.75214 -7.23931,9.89098 -1.39624,4.12418 -2.09289,8.38768 -2.09289,12.7744 0,5.67441 0.821315,10.6038 2.46395,14.8365 1.65876,4.21657 4.21804,7.37864 7.7057,9.47152 3.48766,2.09289 7.25544,3.13126 11.3165,3.13126 4.93082,0 9.10046,-1.42557 12.5265,-4.26204 3.42606,-2.8526 5.73601,-7.08531 6.94598,-12.682z"/>
   <line id="1234567891011121314" class="fil1 str0" x1="186.142" y1="258.588" x2="283.558" y2= "203.399" />
   <polygon id="123456789101112131415" class="fil2" points="188.003,263.55 183.04,255.488 284.178,197.198 284.178,207.12 "/>
   <polygon id="12345678910111213141516" class="fil0" points="527.4,83.7155 527.4,17.1303 536.22,17.1303 536.22,44.4771 570.823,44.4771 570.823,17.1303 579.645,17.1303 579.645,83.7155 570.823,83.7155 570.823,52.3383 536.22,52.3383 536.22,83.7155 "/>
   <line id="1234567891011121314151617" class="fil1 str0" x1="553.464" y1="94.878" x2="553.464" y2= "155.649" />
   <polygon id="123456789101112131415161718" class="fil2" points="548.501,94.2576 557.808,94.2576 557.808,156.27 548.501,156.27 "/>
  </g>
  <g>
   <polygon class="fil1" points="0,0 600,0 600,347.886 0,347.886 "/>
  </g>
 </g>
</svg>
